<?xml version="1.0" encoding="UTF-8" standalone="no"?>
<svg width="40px" height="28px" viewBox="0 0 40 28" version="1.1" xmlns="http://www.w3.org/2000/svg" xmlns:xlink="http://www.w3.org/1999/xlink" xmlns:sketch="http://www.bohemiancoding.com/sketch/ns">
    <!-- Generator: Sketch 3.5.2 (25235) - http://www.bohemiancoding.com/sketch -->
    <title>Group</title>
    <desc>Created with Sketch.</desc>
    <defs></defs>
    <g id="Page-1" stroke="none" stroke-width="1" fill="none" fill-rule="evenodd" sketch:type="MSPage">
        <g sketch:type="MSLayerGroup" transform="translate(-3034.000000, -209.000000)" id="Group-433" fill="#000000">
            <g transform="translate(2371.713900, 0.000000)" sketch:type="MSShapeGroup">
                <g transform="translate(0.000000, 209.000000)">
                    <g id="Group" transform="translate(663.000000, 0.000000)">
                        <path d="M37.6405,24.3839 L1.3615,24.3839 C0.6095,24.3839 0.0005,24.9929 0.0005,25.7439 C0.0005,26.4959 0.6095,27.1049 1.3615,27.1049 L37.6405,27.1049 C38.3925,27.1049 39.0005,26.4959 39.0005,25.7439 C39.0005,24.9929 38.3925,24.3839 37.6405,24.3839 M37.6405,0.8029 L1.3615,0.8029 C0.6095,0.8029 0.0005,1.4119 0.0005,2.1629 C0.0005,2.9139 0.6095,3.5239 1.3615,3.5239 L37.6405,3.5239 C38.3925,3.5239 39.0005,2.9139 39.0005,2.1629 C39.0005,1.4119 38.3925,0.8029 37.6405,0.8029 M37.6405,12.5929 L1.3615,12.5929 C0.6095,12.5929 0.0005,13.2029 0.0005,13.9539 C0.0005,14.7049 0.6095,15.3139 1.3615,15.3139 L37.6405,15.3139 C38.3925,15.3139 39.0005,14.7049 39.0005,13.9539 C39.0005,13.2029 38.3925,12.5929 37.6405,12.5929" id="Fill-431"></path>
                    </g>
                </g>
            </g>
        </g>
    </g>
</svg>